<?xml version="1.0" encoding="UTF-8"?>
<svg version="1.1" xmlns="http://www.w3.org/2000/svg" width="208" height="410">
<path d="M0 0 C2.079731 1.64409474 4.08295518 3.34775602 6.07373047 5.09838867 C7.55169776 6.35761025 9.03088166 7.61540518 10.51123047 8.87182617 C11.23697266 9.49283203 11.96271484 10.11383789 12.71044922 10.75366211 C15.76559032 13.33020208 18.91158486 15.7803589 22.07373047 18.22338867 C27.13784689 22.15935323 32.05373961 26.23681238 36.92578125 30.40722656 C41.43462347 34.24897908 46.06702028 37.9144914 50.73828125 41.5559082 C55.15917176 45.00393256 59.51359351 48.52444659 63.84326172 52.08666992 C67.51406279 55.10317356 71.19888138 58.10215024 74.88623047 61.09838867 C75.58087402 61.66283691 76.27551758 62.22728516 76.99121094 62.80883789 C81.35674447 66.35291679 85.73958938 69.87420862 90.13623047 73.37963867 C94.42172607 76.81800142 98.67910317 80.29090594 102.94091797 83.75854492 C107.32693245 87.325285 111.73092057 90.86796132 116.15185547 94.39135742 C119.64097607 97.1918358 123.10591149 100.02160689 126.57373047 102.84838867 C131.67756665 107.00840168 136.81708149 111.11433523 142.01123047 115.16088867 C146.70327886 118.83420701 151.36003214 122.54649169 155.94873047 126.34838867 C156.48135498 126.78038574 157.01397949 127.21238281 157.56274414 127.6574707 C163.34036191 132.49985923 166.95237418 137.97519715 167.82373047 145.53588867 C167.93651414 153.40568274 166.30023304 159.86208948 160.82763672 165.64526367 C155.6542896 170.43634376 150.08664275 174.76196888 144.5144043 179.07568359 C138.69850319 183.58467593 133.04660695 188.28501625 127.42114258 193.02880859 C126.73544189 193.60091064 126.04974121 194.1730127 125.34326172 194.76245117 C124.73587158 195.27372559 124.12848145 195.785 123.50268555 196.31176758 C121.82373047 197.53588867 121.82373047 197.53588867 118.82373047 198.53588867 C122.6825673 202.54966923 126.7926118 206.05833709 131.13623047 209.53588867 C132.55814358 210.68297685 133.9800174 211.83011373 135.40185547 212.97729492 C136.12953125 213.56269043 136.85720703 214.14808594 137.60693359 214.7512207 C141.20725357 217.64971619 144.79709872 220.56105978 148.38623047 223.47338867 C149.02794189 223.99223633 149.66965332 224.51108398 150.33081055 225.0456543 C152.16791856 226.53508477 153.99733458 228.03334804 155.82373047 229.53588867 C156.78182617 230.316698 156.78182617 230.316698 157.75927734 231.11328125 C158.37996094 231.62914795 159.00064453 232.14501465 159.64013672 232.67651367 C160.19515869 233.13445312 160.75018066 233.59239258 161.32202148 234.06420898 C165.75266037 238.4062495 167.43112436 244.18774131 167.85888672 250.23901367 C167.73560954 258.29312276 165.156372 264.0846277 159.51904297 269.92260742 C153.97608663 274.8843115 148.31986641 279.59523958 142.43945312 284.14794922 C137.65755625 287.85395153 132.98055732 291.67423203 128.32373047 295.53588867 C123.20922053 299.77261183 118.06482148 303.95670908 112.82373047 308.03588867 C106.74575312 312.76722188 100.79650766 317.64469342 94.86108398 322.55322266 C90.42660972 326.2197351 85.96554712 329.84691126 81.46044922 333.42651367 C77.97965942 336.21114551 74.52854264 339.03163839 71.07373047 341.84838867 C66.05021784 345.94166469 60.99687731 349.98950442 55.88623047 353.97338867 C49.20483799 359.18755119 42.67125637 364.57293953 36.14013672 369.97338867 C29.97459261 375.06975522 23.76409214 380.11054433 17.54541016 385.1418457 C16.02419122 386.37357573 14.50577712 387.60876805 12.98779297 388.84448242 C-8.15936515 405.95566872 -8.15936515 405.95566872 -23.17626953 404.53588867 C-29.89241941 402.79343928 -34.27049955 398.07537408 -38.17626953 392.53588867 C-41.45620781 385.97601211 -41.06057952 378.32591851 -38.80126953 371.47338867 C-36.03667618 365.31064932 -31.38849755 361.65044218 -26.17626953 357.53588867 C-25.66273926 357.12790039 -25.14920898 356.71991211 -24.62011719 356.29956055 C-21.76274204 354.03166509 -18.88918893 351.78552254 -16.00830078 349.54760742 C-11.87951267 346.32396436 -7.8373428 342.99945417 -3.80126953 339.66088867 C6.7785792 330.91239855 17.41585852 322.23679333 28.15185547 313.68041992 C30.94662283 311.43725138 33.72548103 309.17537637 36.50317383 306.91113281 C42.21623096 302.25432773 47.94814016 297.62984616 53.76123047 293.09838867 C60.44262295 287.88422616 66.97620457 282.49883781 73.50732422 277.09838867 C77.74171451 273.59829124 81.99741574 270.12504811 86.26123047 266.66088867 C86.92106934 266.12302734 87.5809082 265.58516602 88.26074219 265.03100586 C91.16376906 262.66959395 94.07538215 260.32701827 97.04638672 258.05151367 C98.42117187 256.9919043 98.42117187 256.9919043 99.82373047 255.91088867 C100.60748047 255.32049805 101.39123047 254.73010742 102.19873047 254.12182617 C102.73498047 253.5984668 103.27123047 253.07510742 103.82373047 252.53588867 C104.16700998 249.56599112 104.16700998 249.56599112 102.45019531 248.08129883 C101.81807129 247.5842041 101.18594727 247.08710938 100.53466797 246.57495117 C99.83986328 246.0206543 99.14505859 245.46635742 98.42919922 244.89526367 C97.69314453 244.32291992 96.95708984 243.75057617 96.19873047 243.16088867 C94.76882979 242.02834527 93.33913917 240.8955366 91.90966797 239.76245117 C91.21969727 239.22007812 90.52972656 238.67770508 89.81884766 238.11889648 C87.11276668 235.97178084 84.46574541 233.76118202 81.82373047 231.53588867 C77.38466112 232.97756807 74.3206313 235.42369562 70.88623047 238.47338867 C66.37088656 242.38982417 61.7977592 246.18626684 57.07373047 249.84838867 C50.91038763 254.63967992 44.87766216 259.57745024 38.86206055 264.55249023 C34.43001262 268.21684145 29.97236651 271.84304047 25.46826172 275.41870117 C23.33000993 277.13056597 21.20487425 278.85559027 19.08544922 280.59057617 C15.01304342 283.92422575 10.92609812 287.23917787 6.82373047 290.53588867 C6.23672363 291.00833008 5.6497168 291.48077148 5.04492188 291.9675293 C3.46076841 293.23262935 1.86139072 294.47859651 0.26123047 295.72338867 C-0.62693359 296.41819336 -1.51509766 297.11299805 -2.43017578 297.82885742 C-8.62430652 301.67926302 -15.37490647 302.44806473 -22.43798828 301.10620117 C-29.79333113 299.08316969 -34.22811597 294.84774973 -38.05126953 288.34838867 C-39.91171991 283.69726273 -40.30417423 279.92172923 -40.31671143 274.88935852 C-40.31968255 274.22258833 -40.32265367 273.55581813 -40.32571483 272.86884278 C-40.33438238 270.63585639 -40.33590843 268.40292374 -40.33740234 266.16992188 C-40.34203196 264.56819037 -40.34705682 262.96645996 -40.35244751 261.36473083 C-40.36556128 257.01326293 -40.37201469 252.66181044 -40.37645817 248.31032586 C-40.37939108 245.58987423 -40.38349634 242.8694268 -40.38796234 240.14897728 C-40.40163575 231.63215985 -40.41130268 223.11535204 -40.41516423 214.59852439 C-40.41964209 204.77703583 -40.43717798 194.95568664 -40.46616483 185.13424045 C-40.4878074 177.53662689 -40.49786992 169.93905247 -40.49920535 162.34140843 C-40.50025171 157.80666092 -40.5061232 153.27204445 -40.52402496 148.73732948 C-40.5405498 144.46832391 -40.54263982 140.19954725 -40.53388596 135.93052101 C-40.53311789 134.36849859 -40.5374278 132.80646364 -40.54734421 131.2444725 C-40.60268113 121.98053239 -40.47972179 113.91929235 -35.48876953 105.78588867 C-29.91243251 100.36026347 -24.22102243 97.43483299 -16.42626953 97.28588867 C-5.47290693 97.52504506 0.46630461 103.28262918 8.2734375 110.18286133 C10.34448159 111.99037729 12.48036584 113.70582879 14.63623047 115.41088867 C18.97951034 118.85313155 23.27916551 122.34578335 27.57373047 125.84838867 C32.59716013 129.94174943 37.65035219 133.9898123 42.76123047 137.97338867 C48.0452979 142.09257839 53.22837453 146.3224191 58.38623047 150.59838867 C65.40546685 156.41698713 72.54701317 162.04354901 79.82373047 167.53588867 C83.33788984 165.98312058 86.00953159 163.87021835 88.94873047 161.41088867 C94.19211665 157.05669046 99.49162465 152.78075383 104.82373047 148.53588867 C101.33298788 144.96188067 97.71275891 141.62536089 93.88623047 138.41088867 C93.32629395 137.9386084 92.76635742 137.46632812 92.18945312 136.97973633 C87.50861965 133.0571849 82.72719253 129.27210455 77.91137695 125.51733398 C73.48948681 122.06915546 69.13454586 118.54788893 64.80419922 114.98510742 C61.13339815 111.96860379 57.44857956 108.9696271 53.76123047 105.97338867 C53.06658691 105.40894043 52.37194336 104.84449219 51.65625 104.26293945 C47.29071646 100.71886055 42.90787156 97.19756873 38.51123047 93.69213867 C34.22573487 90.25377592 29.96835777 86.7808714 25.70654297 83.31323242 C21.32052849 79.74649235 16.91654037 76.20381603 12.49560547 72.68041992 C9.00648486 69.87994154 5.54154945 67.05017045 2.07373047 64.22338867 C-3.03009474 60.06338461 -8.16927074 55.95698363 -13.36376953 51.91088867 C-18.07015512 48.23238844 -22.71933952 44.49356818 -27.30126953 40.66088867 C-28.1002063 40.00032471 -28.1002063 40.00032471 -28.9152832 39.32641602 C-36.09542352 33.26236567 -39.57076547 27.28817722 -40.55126953 17.97338867 C-39.65676181 9.7737346 -36.22760412 4.12371678 -30.17626953 -1.46411133 C-20.07245446 -7.60564598 -9.69332412 -6.52129961 0 0 Z M7.82373047 171.53588867 C7.82373047 190.01588867 7.82373047 208.49588867 7.82373047 227.53588867 C14.00766301 222.92964573 14.00766301 222.92964573 20.00732422 218.13354492 C21.05158569 217.26753662 21.05158569 217.26753662 22.11694336 216.3840332 C23.17836548 215.50013916 23.17836548 215.50013916 24.26123047 214.59838867 C30.04011614 209.81025909 35.84131683 205.06956967 41.82373047 200.53588867 C40.51332082 196.60465973 38.01832834 195.11977136 34.82373047 192.72338867 C28.197726 187.64811401 21.74537392 182.38953333 15.33544922 177.04443359 C14.64580078 176.47184814 13.95615234 175.8992627 13.24560547 175.30932617 C12.63297852 174.79805176 12.02035156 174.28677734 11.38916016 173.76000977 C9.82639112 172.45443883 9.82639112 172.45443883 7.82373047 171.53588867 Z " fill="#667DFD" transform="translate(40.17626953125,5.464111328125)"/>
<path d="M0 0 C4.43899351 1.44165477 7.50325138 3.88765068 10.9375 6.9375 C15.53075032 10.92429361 20.1923742 14.77454342 25 18.5 C29.75744777 22.2119938 34.47964856 25.96077352 39.125 29.8125 C39.65738281 30.24433594 40.18976563 30.67617187 40.73828125 31.12109375 C46.51635282 35.96338509 50.12861216 41.43903471 51 49 C51.12054269 57.41120084 48.90679822 64.15108876 43.125 70.3125 C38.54798476 74.62432337 33.50801504 78.40613037 28.5390625 82.25 C24.62614295 85.27827767 20.80120797 88.40727793 16.98046875 91.55078125 C8.26713771 98.71101528 -0.49434988 105.81306274 -9.3125 112.84375 C-12.88837821 115.71276857 -16.44387927 118.60655122 -20 121.5 C-25.0908562 125.64219112 -30.19559934 129.76494914 -35.328125 133.85546875 C-38.12289236 136.09863729 -40.90175056 138.3605123 -43.67944336 140.62475586 C-49.39250049 145.28156094 -55.1244097 149.90604251 -60.9375 154.4375 C-67.61889248 159.65166252 -74.1524741 165.03705086 -80.68359375 170.4375 C-86.84913786 175.53386655 -93.05963832 180.57465565 -99.27832031 185.60595703 C-100.79953925 186.83768705 -102.31795335 188.07287938 -103.8359375 189.30859375 C-124.98309562 206.41978005 -124.98309562 206.41978005 -140 205 C-146.71614988 203.25755061 -151.09423002 198.53948541 -155 193 C-158.27993828 186.44012344 -157.88430999 178.79002984 -155.625 171.9375 C-152.86040664 165.77476064 -148.21222802 162.11455351 -143 158 C-142.22970459 157.38801758 -142.22970459 157.38801758 -141.44384766 156.76367188 C-138.58647251 154.49577642 -135.7129194 152.24963387 -132.83203125 150.01171875 C-128.70324314 146.78807569 -124.66107327 143.4635655 -120.625 140.125 C-110.04515127 131.37650987 -99.40787194 122.70090465 -88.671875 114.14453125 C-85.87710764 111.90136271 -83.09824944 109.6394877 -80.32055664 107.37524414 C-74.60749951 102.71843906 -68.8755903 98.09395749 -63.0625 93.5625 C-56.38110752 88.34833748 -49.8475259 82.96294914 -43.31640625 77.5625 C-39.08201595 74.06240257 -34.82631473 70.58915944 -30.5625 67.125 C-29.90266113 66.58713867 -29.24282227 66.04927734 -28.56298828 65.49511719 C-25.65996141 63.13370528 -22.74834832 60.7911296 -19.77734375 58.515625 C-18.86082031 57.80921875 -17.94429687 57.1028125 -17 56.375 C-15.824375 55.48941406 -15.824375 55.48941406 -14.625 54.5859375 C-14.08875 54.06257813 -13.5525 53.53921875 -13 53 C-12.65683866 50.03395284 -12.65683866 50.03395284 -14.35766602 48.5612793 C-15.29630493 47.82518433 -15.29630493 47.82518433 -16.25390625 47.07421875 C-16.94419922 46.52443359 -17.63449219 45.97464844 -18.34570312 45.40820312 C-19.07724609 44.84037109 -19.80878906 44.27253906 -20.5625 43.6875 C-21.98120257 42.56733502 -23.39917658 41.44624666 -24.81640625 40.32421875 C-25.51137207 39.77427246 -26.20633789 39.22432617 -26.92236328 38.65771484 C-28.97110009 37.0230588 -31.01023223 35.38058838 -33.02734375 33.70703125 C-33.600896 33.23370361 -34.17444824 32.76037598 -34.76538086 32.27270508 C-36 31 -36 31 -36 29 C-34.05674708 27.33699433 -32.1023145 25.78744561 -30.0625 24.25 C-24.26314635 19.79320845 -18.57097534 15.22730959 -12.9375 10.5625 C-4.32626 3.43233493 -4.32626 3.43233493 0 0 Z " fill="#5463BC" transform="translate(157,205)"/>
<path d="M0 0 C5.95302334 4.34963023 11.66332173 8.95939412 17.35302734 13.64599609 C25.48055996 20.32777728 33.64005641 26.96757644 41.9375 33.4375 C47.93008803 38.11091083 53.79380289 42.93005448 59.64599609 47.77758789 C66.33640355 53.30694526 73.14500754 58.67678874 80 64 C76.43896012 67.65319248 72.72491949 71.03617023 68.8125 74.3125 C68.24370117 74.79106445 67.67490234 75.26962891 67.08886719 75.76269531 C62.89153806 79.28204868 58.659146 82.75372623 54.34765625 86.1328125 C52.722418 87.42543127 51.12744262 88.75668176 49.55859375 90.1171875 C48.77613281 90.77976562 47.99367187 91.44234375 47.1875 92.125 C46.50042969 92.72570312 45.81335938 93.32640625 45.10546875 93.9453125 C43 95 43 95 40.484375 94.39453125 C37.97573674 92.98638053 36.14211744 91.54328413 34.0625 89.5625 C29.6629763 85.51552578 25.05651088 81.83826841 20.31274414 78.20922852 C19.19712063 77.3479407 18.09211201 76.4727063 16.99882507 75.58323669 C15.60539878 74.47952649 14.17118876 73.42622629 12.70965576 72.41442871 C9.13780267 69.71264827 6.44713876 67.58795723 5.2052002 63.17736816 C4.94712657 59.83609779 4.96173061 56.59917729 5.078125 53.25 C5.08052185 52.03731445 5.0829187 50.82462891 5.08538818 49.57519531 C5.09787026 45.71506652 5.16951836 41.85926335 5.25 38 C5.30926754 34.14134571 5.35518897 30.28388646 5.37176514 26.42480469 C5.38405916 24.02934006 5.4216146 21.63383123 5.48809814 19.23925781 C5.54328356 12.8164792 5.02861277 8.67782126 1.08001709 3.49707031 C0 2 0 2 0 0 Z " fill="#5463BC" transform="translate(41,110)"/>
</svg>
